<?xml version="1.0" encoding="UTF-8" standalone="no"?>
<svg
   xmlns:osb="http://www.openswatchbook.org/uri/2009/osb"
   xmlns:dc="http://purl.org/dc/elements/1.1/"
   xmlns:cc="http://creativecommons.org/ns#"
   xmlns:rdf="http://www.w3.org/1999/02/22-rdf-syntax-ns#"
   xmlns:svg="http://www.w3.org/2000/svg"
   xmlns="http://www.w3.org/2000/svg"
   xmlns:xlink="http://www.w3.org/1999/xlink"
   version="1.1"
   id="svg2"
   height="220"
   width="220">
  <defs
     id="defs4">
    <linearGradient
       id="linearGradient3767">
      <stop
         style="stop-color:#ffa900;stop-opacity:1;"
         offset="0"
         id="stop3800" />
      <stop
         style="stop-color:#fd0000;stop-opacity:1;"
         offset="1"
         id="stop3775" />
    </linearGradient>
    <linearGradient
       spreadMethod="repeat"
       gradientUnits="userSpaceOnUse"
       y2="298.258"
       x2="83.651718"
       y1="163.12114"
       x1="195.5511"
       id="linearGradient3798"
       xlink:href="#linearGradient3767" />
  </defs>
  <g
     transform="translate(2.5547457,54.766869)"
     id="layer1">
    <path
       clip-path="none"
       mask="none"
       transform="matrix(1.0651076,-0.90408718,0.89013474,1.0731629,-250.16148,-67.548145)"
       d="m 221.23922,233.12846 a 80.322945,68.372307 0 0 1 -80.32294,68.37231 80.322945,68.372307 0 0 1 -80.32295,-68.37231 80.322945,68.372307 0 0 1 80.32295,-68.3723 80.322945,68.372307 0 0 1 80.32294,68.3723 z"
       id="path3837"
       style="fill:url(#linearGradient3798);fill-opacity:1;fill-rule:nonzero;stroke:none" />
    <path
       transform="matrix(-0.71212781,-0.99456325,-0.9777811,0.72852659,474.31246,145.67479)"
       d="m 238.396,198.78328 c 32.61949,7.06756 15.40308,37.20961 -8.24653,38.06088 -26.00022,0.93589 -44.08994,-24.61831 -41.97511,-48.94224 2.67817,-30.80329 32.53302,-51.80129 62.38812,-48.26147"
       id="path5413"
       style="fill:none;stroke:#ffffff;stroke-width:14.33045673;stroke-linecap:butt;stroke-linejoin:miter;stroke-miterlimit:4;stroke-opacity:1;stroke-dasharray:none" />
    <path
       transform="matrix(1.0512298,0.82294962,-0.97239782,0.94168108,304.90482,-361.44933)"
       d="m 144.4518,337.67926 a 22.223356,12.626906 0 0 1 -22.22335,12.62691 22.223356,12.626906 0 0 1 -22.22336,-12.62691 22.223356,12.626906 0 0 1 22.22336,-12.62691 22.223356,12.626906 0 0 1 22.22335,12.62691 z"
       id="path3819"
       style="fill:#ffffff;fill-opacity:1;stroke:none" />
    <path
       id="path3853"
       d="m 136.88413,-13.10567 13.09858,22.1959915 20.1541,-20.0243955 -25.57713,-10.690029 z"
       style="fill:#ffffff;fill-opacity:1;stroke:#ffffff;stroke-width:2.36031604;stroke-linecap:round;stroke-linejoin:round;stroke-miterlimit:4;stroke-opacity:1;stroke-dasharray:none" />
    <g
       transform="matrix(0.95039189,0,0,0.93299787,-2.487134,-0.56516029)"
       id="g3804">
      <path
         style="fill:none;stroke:#ffffff;stroke-width:3.72635746;stroke-linecap:butt;stroke-linejoin:miter;stroke-miterlimit:4;stroke-opacity:1;stroke-dasharray:none"
         d="m 142.07904,-24.83606 -2.29208,-13.70422 0.18559,0.452199 0,0"
         id="path3855-7" />
      <path
         style="fill:none;stroke:#ffffff;stroke-width:4.02542162;stroke-linecap:butt;stroke-linejoin:miter;stroke-miterlimit:4;stroke-opacity:1;stroke-dasharray:none"
         d="m 127.81295,-26.11257 15.12343,0.663566 -0.4755,0.06597 0,0"
         id="path3855-7-0" />
      <path
         style="fill:none;stroke:#ffffff;stroke-width:4.06302309;stroke-linecap:butt;stroke-linejoin:miter;stroke-miterlimit:4;stroke-opacity:1;stroke-dasharray:none"
         d="m 150.77669,-18.240009 -9.57586,-7.57806 0.46343,0.302121 0,0"
         id="path3855-7-05" />
    </g>
    <path
       id="path3942"
       d="m 67.476992,131.73602 c 3.410653,2.96251 14.804165,7.71706 18.766169,12.74152 4.041356,5.12504 3.407665,10.98393 3.371624,14.32634"
       style="fill:none;stroke:#ffffff;stroke-width:17.45736313;stroke-linecap:butt;stroke-linejoin:miter;stroke-miterlimit:4;stroke-opacity:1;stroke-dasharray:none" />
    <path
       transform="matrix(0.95949998,0.82835015,0.79893463,-0.95307413,-285.3304,56.888018)"
       d="m 238.396,198.78328 c 32.61946,7.06755 15.40307,37.20957 -8.24652,38.06085 -26.0002,0.93588 -44.0899,-24.61829 -41.97507,-48.9422 2.70006,-31.05511 32.97695,-52.07076 63.01891,-48.18321 1.11735,0.14459 2.2306,0.32088 3.33799,0.52843"
       id="path2987-5"
       style="fill:none;stroke:#ffffff;stroke-width:13.93870544;stroke-linecap:butt;stroke-linejoin:miter;stroke-miterlimit:4;stroke-opacity:1;stroke-dasharray:none" />
  </g>
</svg>
