<?xml version="1.0" encoding="UTF-8" standalone="no"?>
<svg
   xmlns:osb="http://www.openswatchbook.org/uri/2009/osb"
   xmlns:dc="http://purl.org/dc/elements/1.1/"
   xmlns:cc="http://creativecommons.org/ns#"
   xmlns:rdf="http://www.w3.org/1999/02/22-rdf-syntax-ns#"
   xmlns:svg="http://www.w3.org/2000/svg"
   xmlns="http://www.w3.org/2000/svg"
   version="1.1"
   id="svg2"
   height="167.52676"
   width="771.12372">
  <defs
     id="defs4">
    <linearGradient
       id="linearGradient3767">
      <stop
         style="stop-color:#ffa900;stop-opacity:1;"
         offset="0"
         id="stop3800" />
      <stop
         style="stop-color:#fd0000;stop-opacity:1;"
         offset="1"
         id="stop3775" />
    </linearGradient>
  </defs>
  <g
     transform="translate(6.1070519,22.476169)"
     id="layer1">
    <g
       id="text3047"
       style="fill:#000000;fill-opacity:1;stroke:none">
      <path
         id="path4164"
         style="fill:#ffffff"
         d="m 5.5129443,73.773459 c 0,15.91 11.0999997,26.640001 27.0099997,26.640001 10.73,0 19.98,-5.365001 28.12,-12.210001 l 0.555,0 1.665,9.99 17.39,0 0,-53.835 c 0,-25.345 -11.1,-39.2200004 -33.855,-39.2200004 -14.43,0 -27.195,5.5500004 -37.1849997,11.8400004 l 7.7699997,14.245 c 7.955,-4.81 16.465,-8.88 25.53,-8.88 12.21,0 16.28,8.14 16.465,17.76 -37.185,4.07 -53.4649997,14.245 -53.4649997,33.67 z m 20.7199997,-1.665 c 0,-9.065 8.14,-15.54 32.745,-18.685 l 0,20.35 c -6.66,6.29 -12.395,9.99 -19.795,9.99 -7.585,0 -12.95,-3.515 -12.95,-11.655 z" />
      <path
         id="path4166"
         style="fill:#ffffff"
         d="m 97.168882,87.833459 c 8.879998,7.215 22.014998,12.580001 34.409998,12.580001 22.94,0 35.335,-12.580001 35.335,-28.120001 0,-17.02 -13.69,-22.94 -26.085,-27.565 -9.805,-3.515 -18.87,-6.29 -18.87,-13.505 0,-5.735 4.255,-9.99 13.32,-9.99 7.215,0 13.69,3.145 19.98,7.77 l 9.805,-12.95 c -7.4,-5.735 -17.575,-10.9150004 -30.155,-10.9150004 -20.35,0 -33.115,11.2850004 -33.115,27.1950004 0,15.17 13.505,22.015 25.53,26.455 9.62,3.7 19.425,7.03 19.425,14.615 0,6.29 -4.625,10.915 -14.43,10.915 -9.25,0 -17.02,-3.885 -25.16,-10.175 l -9.989998,13.69 z" />
      <path
         id="path4168"
         style="fill:#ffffff"
         d="m 189.2324,67.483459 c 0,19.61 7.77,32.930001 28.86,32.930001 7.215,0 13.505,-1.665001 18.5,-3.330001 l -3.7,-15.725 c -2.59,1.11 -6.29,2.035 -9.435,2.035 -8.695,0 -12.765,-5.18 -12.765,-15.91 l 0,-43.29 23.125,0 0,-16.8350004 -23.125,0 0,-24.7899996 -17.76,0 -2.59,24.7899996 -14.06,0.925 0,15.9100004 12.95,0 0,43.29 z" />
      <path
         id="path4170"
         style="fill:#ffffff"
         d="m 252.9331,98.193459 21.275,0 0,-55.5 c 5.55,-13.69 14.245,-18.685 21.46,-18.685 3.885,0 6.29,0.555 9.435,1.48 l 3.7,-18.5000004 c -2.775,-1.295 -5.735,-1.85 -10.36,-1.85 -9.62,0 -19.24,6.4750004 -25.715,18.3150004 l -0.74,0 -1.48,-16.0950004 -17.575,0 0,90.8350004 z" />
      <path
         id="path4172"
         style="fill:#ffffff"
         d="m 314.22013,52.868459 c 0,30.155 20.535,47.545001 43.105,47.545001 22.755,0 43.29,-17.390001 43.29,-47.545001 0,-30.34 -20.535,-47.7300004 -43.29,-47.7300004 -22.57,0 -43.105,17.3900004 -43.105,47.7300004 z m 21.83,0 c 0,-18.315 7.955,-30.34 21.275,-30.34 13.32,0 21.46,12.025 21.46,30.34 0,18.13 -8.14,30.155 -21.46,30.155 -13.32,0 -21.275,-12.025 -21.275,-30.155 z" />
      <path
         id="path4174"
         style="fill:#ff5000;fill-opacity:1"
         d="m 433.32833,89.498459 c 9.25,6.845 18.315,10.915001 26.64,10.915001 20.905,0 39.22,-17.760001 39.22,-47.915001 0,-27.565 -11.84,-45.3250004 -35.52,-45.3250004 -10.915,0 -21.46,6.4750004 -30.155,13.3200004 l -0.555,0 -0.74,-11.1000004 -7.03,0 0,128.9450014 8.14,0 0,-32.375 0,-16.465001 z m 0,-7.77 0,-52.725 c 10.73,-9.435 20.165,-14.615 29.045,-14.615 20.35,0 28.12,16.28 28.12,38.11 0,24.05 -12.95,40.7 -30.895,40.7 -6.845,0 -16.095,-3.145 -26.27,-11.47 z" />
      <path
         id="path4176"
         style="fill:#ff5000;fill-opacity:1"
         d="m 515.26888,129.64346 -1.85,7.215 c 2.405,1.11 5.735,1.85 9.065,1.85 15.91,0 24.79,-14.615 29.785,-29.415 l 35.15,-99.9000014 -8.325,0 -19.055,55.8700004 c -2.405,7.4 -5.365,17.02 -8.14,24.79 l -0.74,0 c -3.33,-7.77 -6.845,-17.39 -9.62,-24.79 l -21.46,-55.8700004 -8.88,0 36.445,90.4650004 -2.405,7.770001 c -4.44,13.505 -11.84,23.495 -22.755,23.495 -2.59,0 -5.365,-0.74 -7.215,-1.48 z" />
    </g>
    <path
       id="path3796"
       d="m 699.71522,8.7813958 c -71.7644,0 -58.16693,0 -58.16693,0 l 0.18886,86.0270502 0,0 89.32779,0 0.37769,-47.195398"
       style="fill:none;stroke:#ffffff;stroke-width:7.42324734;stroke-linecap:butt;stroke-linejoin:miter;stroke-miterlimit:4;stroke-opacity:1;stroke-dasharray:none" />
    <path
       id="path3798"
       d="M 690.16624,51.085891 C 750.77539,-8.008031 750.77539,-8.008031 750.77539,-8.008031"
       style="fill:none;stroke:#ffffff;stroke-width:10.39999962;stroke-linecap:butt;stroke-linejoin:miter;stroke-miterlimit:4;stroke-opacity:1;stroke-dasharray:none" />
    <path
       id="path3800"
       d="M 760.01669,-15.838298 717.15954,-2.7141323 744.40571,24.161702 z"
       style="fill:#ffffff;fill-opacity:1;stroke:none" />
  </g>
</svg>
