<?xml version="1.0" encoding="iso-8859-1"?>
<!-- Uploaded to: SVG Repo, www.svgrepo.com, Generator: SVG Repo Mixer Tools -->
<svg height="800px" width="800px" version="1.1" id="Capa_1" xmlns="http://www.w3.org/2000/svg" xmlns:xlink="http://www.w3.org/1999/xlink" 
	 viewBox="0 0 26 26" xml:space="preserve">
<g>
	<g>
		<path style="fill:#030104;" d="M22.934,11.19V8.705l-2.955-0.482c-0.176-0.699-0.45-1.357-0.813-1.961l1.723-2.456l-1.756-1.755
			l-2.424,1.743c-0.604-0.366-1.267-0.646-1.971-0.82l-0.516-2.941h-2.484L11.26,2.965c-0.706,0.173-1.371,0.448-1.977,0.812
			L6.866,2.051L5.11,3.806l1.7,2.431C6.442,6.846,6.163,7.51,5.985,8.22L3.066,8.705v2.484l2.916,0.516
			c0.176,0.71,0.456,1.375,0.824,1.985l-1.723,2.409l1.756,1.757l2.434-1.704c0.608,0.365,1.271,0.642,1.977,0.815l0.488,2.934
			h2.484l0.521-2.941c0.701-0.178,1.363-0.457,1.967-0.824l2.451,1.721l1.755-1.757l-1.749-2.429
			c0.362-0.604,0.637-1.263,0.811-1.964L22.934,11.19z M13,13.431c-1.913,0-3.464-1.55-3.464-3.464c0-1.912,1.551-3.463,3.464-3.463
			s3.463,1.551,3.463,3.463C16.464,11.881,14.913,13.431,13,13.431z"/>
	</g>
	<path style="fill:#030104;" d="M24,18.967v4c0,0.551-0.448,1-1,1H3c-0.552,0-1-0.449-1-1v-4H0v4c0,1.656,1.344,3,3,3h20
		c1.656,0,3-1.344,3-3v-4H24z"/>
</g>
</svg>